<svg width="50" height="50" xmlns="http://www.w3.org/2000/svg">

 <g>
  <title>background</title>
  <rect fill="none" id="canvas_background" height="402" width="582" y="-1" x="-1"/>
 </g>
 <g>
  <title>Layer 1</title>
  <path fill="#ffffff" id="svg_1" d="m18.293,31.707l6.414,0l24,-24l-6.414,-6.414l-24,24l0,6.414zm27.586,-24l-3.586,3.586l-3.586,-3.586l3.586,-3.586l3.586,3.586zm-25.586,18.414l17,-17l3.586,3.586l-17,17l-3.586,0l0,-3.586z"/>
  <polygon fill="#ffffff" id="svg_2" points="43.293,19.707 41.293,19.707 41.293,46.707 3.293,46.707 3.293,8.707 31.293,8.707 31.293,6.707 1.293,6.707    1.293,48.707 43.293,48.707  "/>
 </g>
</svg>